<svg xmlns="http://www.w3.org/2000/svg" viewBox="0 0 64 64" role="img" aria-label="OctoBox">
  <defs>
    <linearGradient id="bg" x1="8" y1="6" x2="58" y2="60" gradientUnits="userSpaceOnUse">
      <stop offset="0" stop-color="#17233A"/>
      <stop offset="0.55" stop-color="#0A0E1A"/>
      <stop offset="1" stop-color="#05070D"/>
    </linearGradient>
    <linearGradient id="ring" x1="14" y1="10" x2="52" y2="56" gradientUnits="userSpaceOnUse">
      <stop offset="0" stop-color="#00E5FF"/>
      <stop offset="0.55" stop-color="#4A90E2"/>
      <stop offset="1" stop-color="#FF00C8"/>
    </linearGradient>
  </defs>
  <rect width="64" height="64" rx="16" fill="url(#bg)"/>
  <path d="M22 10h20l12 12v20L42 54H22L10 42V22l12-12Z" fill="#00E5FF" fill-opacity="0.05" stroke="url(#ring)" stroke-width="4" stroke-linejoin="round"/>
  <path d="M32 18 44 25v14l-12 7-12-7V25l12-7Z" fill="#060C18" fill-opacity="0.62" stroke="#EAFBFF" stroke-opacity="0.32" stroke-width="1.5" stroke-linejoin="round"/>
  <path d="M32 18 44 25 32 32 20 25l12-7Z" fill="#00E5FF" fill-opacity="0.88"/>
  <path d="M20 25v14l12 7V32L20 25Z" fill="#00E5FF" fill-opacity="0.22"/>
  <path d="M44 25v14l-12 7V32l12-7Z" fill="#4A90E2" fill-opacity="0.44"/>
  <path d="M32 18v14m-12-7 12 7 12-7M32 32v14" fill="none" stroke="#EAFBFF" stroke-opacity="0.68" stroke-width="1.5" stroke-linecap="round" stroke-linejoin="round"/>
</svg>
